<?xml version="1.0" encoding="UTF-8" standalone="no"?>
<!-- Created with Inkscape (http://www.inkscape.org/) -->

<svg
   xmlns:dc="http://purl.org/dc/elements/1.1/"
   xmlns:cc="http://creativecommons.org/ns#"
   xmlns:rdf="http://www.w3.org/1999/02/22-rdf-syntax-ns#"
   xmlns:svg="http://www.w3.org/2000/svg"
   xmlns="http://www.w3.org/2000/svg"
   xmlns:sodipodi="http://sodipodi.sourceforge.net/DTD/sodipodi-0.dtd"
   xmlns:inkscape="http://www.inkscape.org/namespaces/inkscape"
   version="1.1"
   id="svg850"
   xml:space="preserve"
   width="600"
   height="194.50414"
   viewBox="0 0 599.99998 194.50414"
   sodipodi:docname="lh-logo-ink.svg"
   inkscape:version="0.92.4 (5da689c313, 2019-01-14)"><metadata
     id="metadata856"><rdf:RDF><cc:Work
         rdf:about=""><dc:format>image/svg+xml</dc:format><dc:type
           rdf:resource="http://purl.org/dc/dcmitype/StillImage" /><dc:title></dc:title></cc:Work></rdf:RDF></metadata><defs
     id="defs854"><clipPath
       clipPathUnits="userSpaceOnUse"
       id="clipPath866"><path
         d="M 0,360 H 1100 V 0 H 0 Z"
         id="path864"
         inkscape:connector-curvature="0" /></clipPath></defs><sodipodi:namedview
     pagecolor="#ffffff"
     bordercolor="#666666"
     borderopacity="1"
     objecttolerance="10"
     gridtolerance="10"
     guidetolerance="10"
     inkscape:pageopacity="0"
     inkscape:pageshadow="2"
     inkscape:window-width="3840"
     inkscape:window-height="2112"
     id="namedview852"
     showgrid="true"
     fit-margin-top="0"
     fit-margin-left="0"
     fit-margin-right="0"
     fit-margin-bottom="0"
     inkscape:zoom="3.1531985"
     inkscape:cx="301.71297"
     inkscape:cy="118.13919"
     inkscape:window-x="0"
     inkscape:window-y="0"
     inkscape:window-maximized="0"
     inkscape:current-layer="g858"
     showguides="false"><inkscape:grid
       type="xygrid"
       id="grid1016" /></sodipodi:namedview><g
     id="g858"
     inkscape:groupmode="layer"
     inkscape:label="LH-Logo-Text"
     transform="matrix(1.3333333,0,0,-1.3333333,-5.3332982,197.77426)"><path
       inkscape:connector-curvature="0"
       id="path870"
       style="fill:#fc0e00;fill-opacity:1;fill-rule:nonzero;stroke:none;stroke-width:0.41144875"
       d="m 119.08952,89.329602 c -3.79726,-13.950581 -7.58753,-27.902808 -11.36627,-41.858738 -0.0942,-0.347674 -0.21066,-0.469051 -0.58344,-0.467405 -4.16838,0.01728 -8.33677,0.01934 -12.505157,0.0082 -0.388408,-8.23e-4 -0.455886,0.06131 -0.353435,0.457119 1.289069,4.968655 2.557154,9.94307 3.830588,14.916251 0.01605,0.06295 0.02716,0.126727 0.03991,0.189267 -0.160054,0.106565 -0.330805,0.06542 -0.491682,0.06707 -4.39921,0.04567 -8.798831,0.08105 -13.198452,0.142773 -0.398283,0.0058 -0.492916,-0.1617 -0.571091,-0.480984 -1.217066,-4.953431 -2.446474,-9.903983 -3.653254,-14.860294 -0.0897,-0.368247 -0.228765,-0.460411 -0.590429,-0.455062 -4.002573,0.05596 -8.005146,0.09916 -12.00772,0.128783 -0.404042,0.0033 -0.49415,0.07159 -0.376064,0.489213 1.288658,4.574898 2.55016,9.158026 3.841286,13.732513 0.126314,0.446833 0.03292,0.517191 -0.39746,0.518425 -8.915683,0.02345 -17.830954,0.06007 -26.746225,0.09463 -0.919588,0.0037 -0.920822,0.0045 -0.924937,0.904365 -0.06295,13.53008 -0.126315,27.808586 -0.18474,41.339072 -0.0021,0.42544 0.183094,0.57438 0.607709,0.57521 4.002574,0.006 8.708724,-0.005 12.711709,0.0148 0.470286,0.002 0.600304,-0.0996 0.599481,-0.58755 -0.01605,-9.808934 -0.01193,-19.617872 -0.01193,-29.426398 0,-0.645152 0,-0.645563 0.666136,-0.644329 5.194128,0.01111 10.387846,0.02839 15.581563,0.02263 0.414329,-4.12e-4 0.555868,0.134132 0.662433,0.513899 1.373004,4.894594 2.76617,9.783017 4.144934,14.675554 0.08682,0.308175 0.188444,0.448479 0.555456,0.448479 4.251089,0 8.501766,0.02057 12.752854,0.04773 0.356726,0.0021 0.446422,-0.06131 0.351789,-0.440662 -1.138479,-4.581893 -2.258854,-9.168312 -3.383343,-13.753908 -0.01522,-0.06295 -0.02057,-0.128372 -0.03703,-0.23576 H 88.5555 c 4.118601,0 8.237203,0.007 12.3558,-0.01111 0.38759,-0.0016 0.53283,0.111914 0.63281,0.473166 1.24628,4.50166 2.51313,8.997149 3.75653,13.499221 0.0983,0.356727 0.24728,0.448068 0.60071,0.447657 4.26755,-0.0025 8.5351,0.0033 12.80264,0.03333 0.47111,0.0037 0.4921,-0.126315 0.38553,-0.517191 m 30.43363,-10.159081 c -0.71057,4.202538 -2.69211,7.803126 -5.71379,10.824805 -17.42732,17.424038 -34.83901,34.863698 -52.286492,52.267158 -4.771571,4.75964 -10.586988,6.69797 -17.275498,5.8903 -4.401679,-0.53118 -8.232267,-2.36048 -11.430046,-5.434 -2.193434,-2.10868 -4.319801,-4.2873 -6.471678,-6.43918 C 40.966102,120.9013 25.580388,105.52916 10.212366,90.139333 5.0927092,85.011447 3.1527284,78.809681 4.3356435,71.68956 5.0375751,67.467273 7.0224038,63.849816 10.057661,60.815381 27.484984,43.391762 44.907781,25.962793 62.336749,8.5408188 c 4.032198,-4.0301404 8.938724,-5.9894593 14.111869,-6.088207 1.861806,0.00782 3.212181,0.1316636 4.542394,0.4056885 4.072932,0.8393554 7.587115,2.7242021 10.531442,5.6693521 C 108.94772,25.955798 126.3915,43.364606 143.79126,60.81785 c 5.07275,5.088387 6.9255,11.294679 5.73189,18.352671" /><path
       d="m 229.54544,274.69442 c -3.79726,-13.95058 -7.58752,-27.90281 -11.36627,-41.85873 -0.0942,-0.34768 -0.21066,-0.46906 -0.58343,-0.46741 -4.16839,0.0172 -8.33677,0.0194 -12.50516,0.008 -0.38841,-7.5e-4 -0.45589,0.0613 -0.35344,0.45712 1.28907,4.96866 2.55716,9.94307 3.83059,14.91625 0.016,0.0629 0.0271,0.12672 0.0399,0.18927 -0.16006,0.10656 -0.33081,0.0654 -0.49169,0.067 -4.3992,0.0457 -8.79882,0.0811 -13.19845,0.14277 -0.39828,0.006 -0.49292,-0.1617 -0.57109,-0.48098 -1.21706,-4.95344 -2.44648,-9.90398 -3.65325,-14.8603 -0.0897,-0.36825 -0.22877,-0.46041 -0.59043,-0.45506 -4.00257,0.0559 -8.00515,0.0992 -12.00772,0.12878 -0.40404,0.003 -0.49415,0.0716 -0.37607,0.48922 1.28866,4.57489 2.55016,9.15802 3.84129,13.73251 0.12631,0.44683 0.0329,0.51719 -0.39746,0.51843 -8.91568,0.0235 -17.83095,0.0601 -26.74623,0.0946 -0.91958,0.004 -0.92082,0.005 -0.92493,0.90436 -0.063,13.53008 -0.12632,27.80859 -0.18474,41.33908 -0.002,0.42543 0.18309,0.57438 0.60771,0.5752 4.00257,0.006 8.70872,-0.005 12.71171,0.0148 0.47028,0.002 0.6003,-0.0996 0.59948,-0.58754 -0.016,-9.80894 -0.0119,-19.61787 -0.0119,-29.4264 0,-0.64515 0,-0.64556 0.66613,-0.64433 5.19413,0.0111 10.38785,0.0284 15.58157,0.0226 0.41432,-4.1e-4 0.55586,0.13413 0.66243,0.5139 1.373,4.89459 2.76617,9.78302 4.14493,14.67555 0.0868,0.30818 0.18845,0.44848 0.55546,0.44848 4.25109,0 8.50177,0.0206 12.75286,0.0477 0.35672,0.002 0.44642,-0.0613 0.35178,-0.44066 -1.13847,-4.58189 -2.25885,-9.16831 -3.38334,-13.75391 -0.0152,-0.063 -0.0205,-0.12837 -0.037,-0.23576 h 0.50279 c 4.1186,0 8.2372,0.007 12.35579,-0.0111 0.38759,-0.002 0.53283,0.11192 0.63282,0.47317 1.24627,4.50166 2.51313,8.99715 3.75652,13.49922 0.0983,0.35673 0.24728,0.44807 0.60072,0.44766 4.26755,-0.002 8.53509,0.003 12.80264,0.0333 0.47111,0.004 0.49209,-0.12632 0.38553,-0.51719 m 30.43366,-10.1591 c -0.71057,4.20254 -2.69211,7.80313 -5.71379,10.82481 -17.42732,17.42402 -34.83901,34.86369 -52.28649,52.26715 -4.77157,4.75964 -10.58698,6.69797 -17.2755,5.8903 -4.40167,-0.53118 -8.23226,-2.36048 -11.43004,-5.434 -2.19344,-2.10868 -4.3198,-4.2873 -6.47168,-6.43918 -15.37954,-15.37835 -30.76526,-30.75048 -46.13328,-46.14031 -5.11966,-5.12788 -7.05964,-11.32965 -5.87672,-18.44977 0.70193,-4.22229 2.68676,-7.83974 5.72201,-10.87418 17.42733,-17.42362 34.85012,-34.85259 52.27909,-52.27456 4.0322,-4.03014 8.93873,-5.98946 14.11187,-6.08821 1.86181,0.008 3.21218,0.13166 4.5424,0.40569 4.07293,0.83936 7.58711,2.7242 10.53144,5.66935 17.42526,17.42815 34.86904,34.83695 52.26879,52.2902 5.07276,5.08839 6.92551,11.29468 5.7319,18.35267"
       style="fill:#fc0e00;fill-opacity:1;fill-rule:nonzero;stroke:none;stroke-width:0.41144872"
       id="path870-3"
       inkscape:connector-curvature="0" /><g
       id="g1554"
       transform="translate(-188.32218,-201.50015)"><g
         transform="translate(-68.953113,79.11188)"
         id="g1014"><path
           d="m 426.05346,214.58869 h 3.14964 v -24.99798 h 15.70829 v -2.90977 h -18.85793 z"
           style="fill:#000000;fill-opacity:1;fill-rule:nonzero;stroke:none;stroke-width:0.41144872"
           id="path874-6"
           inkscape:connector-curvature="0" /><path
           d="m 486.73391,211.71859 h -17.0241 v -9.52916 h 15.22978 v -2.87026 h -15.22978 v -9.76821 h 17.22283 v -2.87026 h -20.37247 v 27.90815 h 20.17374 z"
           style="fill:#000000;fill-opacity:1;fill-rule:nonzero;stroke:none;stroke-width:0.41144872"
           id="path878-7"
           inkscape:connector-curvature="0" /><path
           d="m 522.05745,186.20276 c -8.77044,0 -14.19292,6.3791 -14.19292,14.39206 0,7.69492 5.62162,14.47189 13.99419,14.47189 4.7045,0 7.61427,-1.35531 10.40554,-3.70757 l -2.0342,-2.39216 c -2.15188,1.87415 -4.54446,3.18996 -8.49107,3.18996 -6.17996,0 -10.60551,-5.22293 -10.60551,-11.4823 0,-6.69756 4.26632,-11.64153 11.0437,-11.64153 3.18996,0 6.14005,1.23599 8.05288,2.79045 v 6.93702 h -8.49107 v 2.83118 h 11.52179 v -11.12351 c -2.5913,-2.31235 -6.49842,-4.26549 -11.20333,-4.26549"
           style="fill:#000000;fill-opacity:1;fill-rule:nonzero;stroke:none;stroke-width:0.41144872"
           id="path882-5"
           inkscape:connector-curvature="0" /><path
           d="m 567.94723,211.11993 -6.37911,-14.23284 h 12.71829 z m 14.23283,-24.43882 h -3.38827 l -3.26938,7.37522 h -15.19028 l -3.30928,-7.37522 h -3.22863 l 12.71787,28.10688 h 2.95009 z"
           style="fill:#000000;fill-opacity:1;fill-rule:nonzero;stroke:none;stroke-width:0.41144872"
           id="path886-3"
           inkscape:connector-curvature="0" /><path
           d="m 604.33472,214.58869 h 3.14882 v -24.99798 h 15.70829 v -2.90977 h -18.85711 z"
           style="fill:#000000;fill-opacity:1;fill-rule:nonzero;stroke:none;stroke-width:0.41144872"
           id="path890-5"
           inkscape:connector-curvature="0" /><path
           d="m 429.20302,164.00621 v -12.55865 h -3.14964 v 27.90815 h 3.14964 v -12.39942 h 16.10657 v 12.39942 h 3.15005 v -27.90815 h -3.15005 v 12.55865 z"
           style="fill:#000000;fill-opacity:1;fill-rule:nonzero;stroke:none;stroke-width:0.41144872"
           id="path894-6"
           inkscape:connector-curvature="0" /><path
           d="m 484.46148,175.88679 -6.3791,-14.23325 h 12.71829 z m 14.23284,-24.43923 h -3.3887 l -3.26937,7.37563 h -15.18986 l -3.30887,-7.37563 h -3.22988 l 12.7183,28.1073 h 2.9505 z"
           style="fill:#000000;fill-opacity:1;fill-rule:nonzero;stroke:none;stroke-width:0.41144872"
           id="path898-2"
           inkscape:connector-curvature="0" /><path
           d="m 531.66622,150.96925 c -8.05288,0 -13.99502,6.33919 -13.99502,14.39206 0,7.97388 5.90099,14.4723 14.11475,14.4723 5.06328,0 8.09278,-1.7935 10.88364,-4.42513 l -2.15311,-2.31234 c -2.35267,2.23293 -4.98388,3.82729 -8.77044,3.82729 -6.17955,0 -10.80464,-4.98346 -10.80464,-11.48188 0,-6.49884 4.66459,-11.56213 10.80464,-11.56213 3.82647,0 6.33837,1.47505 9.00949,4.02644 l 2.07329,-2.03338 c -2.90977,-2.95008 -6.0989,-4.90323 -11.1626,-4.90323"
           style="fill:#000000;fill-opacity:1;fill-rule:nonzero;stroke:none;stroke-width:0.41144872"
           id="path902-9"
           inkscape:connector-curvature="0" /><path
           d="m 586.40495,151.4474 h -3.9458 l -10.72523,13.51609 -5.94091,-6.02073 v -7.49536 h -3.14923 v 27.90815 h 3.14923 v -16.66491 l 16.02758,16.66491 h 4.06634 l -11.95999,-12.19987 z"
           style="fill:#000000;fill-opacity:1;fill-rule:nonzero;stroke:none;stroke-width:0.41144872"
           id="path906-1"
           inkscape:connector-curvature="0" /><path
           d="m 624.64075,176.48508 h -17.02451 v -9.52874 h 15.23018 v -2.87068 h -15.23018 v -9.76779 h 17.22365 v -2.87068 h -20.37248 v 27.90857 h 20.17334 z"
           style="fill:#000000;fill-opacity:1;fill-rule:nonzero;stroke:none;stroke-width:0.41144872"
           id="path910-2"
           inkscape:connector-curvature="0" /><path
           d="m 658.76849,176.44529 h -8.61204 v -11.32307 h 8.57213 c 4.18608,0 7.17607,2.1527 7.17607,5.78086 0,3.46892 -2.63163,5.54221 -7.13616,5.54221 m 7.45462,-24.99798 -8.09319,10.84415 h -7.97347 v -10.84415 h -3.14881 v 27.90816 h 11.9999 c 6.14005,0 10.08707,-3.30969 10.08707,-8.33307 0,-4.66418 -3.18996,-7.37481 -7.57518,-8.17261 l 8.57213,-11.40248 z"
           style="fill:#000000;fill-opacity:1;fill-rule:nonzero;stroke:none;stroke-width:0.41144872"
           id="path914-7"
           inkscape:connector-curvature="0" /><path
           d="m 702.18637,166.91651 c 6.21863,-1.35572 9.08891,-3.62815 9.08891,-7.93355 0,-4.82465 -3.98612,-7.93356 -9.52792,-7.93356 -4.42514,0 -8.0537,1.47505 -11.40248,4.46463 l 1.95396,2.31235 c 2.90977,-2.63122 5.70063,-3.94703 9.56784,-3.94703 3.74747,0 6.21945,1.95356 6.21945,4.78432 0,2.63163 -1.39522,4.10667 -7.25631,5.34267 -6.41818,1.39522 -9.36868,3.46851 -9.36868,8.09319 0,4.46546 3.8672,7.65418 9.16954,7.65418 4.06717,0 6.97776,-1.15576 9.80812,-3.42778 l -1.83465,-2.43207 c -2.59131,2.11238 -5.18261,3.0295 -8.05329,3.0295 -3.62692,0 -5.93967,-1.99347 -5.93967,-4.54528 0,-2.67112 1.43431,-4.14617 7.57518,-5.46157"
           style="fill:#000000;fill-opacity:1;fill-rule:nonzero;stroke:none;stroke-width:0.41144872"
           id="path918-0"
           inkscape:connector-curvature="0" /></g><g
         id="flowRoot1018"
         style="font-style:normal;font-weight:normal;font-size:40px;line-height:1.25;font-family:sans-serif;letter-spacing:24px;word-spacing:0px;fill:#000000;fill-opacity:1;stroke:none"
         transform="matrix(0.75000002,0,0,-0.75000002,-129.95769,318.89639)"
         aria-label="BCN"><path
           id="path1530"
           style="font-style:normal;font-variant:normal;font-weight:normal;font-stretch:normal;font-size:42.66666794px;font-family:Gotham;-inkscape-font-specification:Gotham;letter-spacing:24px;word-spacing:0px"
           d="m 649.224,23.970574 h 13.26933 c 6.528,0 10.83734,-3.029333 10.83734,-8.149333 v -0.08533 c 0,-4.096 -2.85867,-6.144 -6.4,-7.2106667 2.34666,-1.024 4.736,-3.0293334 4.736,-6.9120002 v -0.085333 c 0,-1.9200001 -0.68267,-3.4986668 -1.92,-4.7786669 -1.70667,-1.664 -4.39467,-2.6453334 -7.808,-2.6453334 H 649.224 Z M 652.552,7.4159069 V -2.86676 h 9.088 c 4.26667,0 6.61333,1.92000002 6.61333,4.8640001 v 0.085333 c 0,3.4986668 -2.816,5.3333335 -6.86933,5.3333335 z m 0,13.5253341 V 10.402574 h 9.42933 c 5.20534,0 7.936,1.877333 7.936,5.12 v 0.08533 c 0,3.328 -2.816,5.333334 -7.33866,5.333334 z"
           inkscape:connector-curvature="0" /><path
           id="path1532"
           style="font-style:normal;font-variant:normal;font-weight:normal;font-stretch:normal;font-size:42.66666794px;font-family:Gotham;-inkscape-font-specification:Gotham;letter-spacing:24px;word-spacing:0px"
           d="m 717.71067,24.482574 c 5.41867,0 8.832,-2.090667 11.94667,-5.248 l -2.21867,-2.176 c -2.85867,2.730667 -5.54667,4.309333 -9.64267,4.309333 -6.57066,0 -11.56266,-5.418666 -11.56266,-12.3306667 V 8.951907 c 0,-6.8693336 4.94933,-12.2453337 11.56266,-12.2453337 4.05334,0 6.86934,1.7066667 9.38667,4.0960001 l 2.304,-2.4746667 c -2.98667,-2.8160001 -6.22933,-4.7360002 -11.648,-4.7360002 -8.78933,0 -15.104,6.99733356 -15.104,15.4453338 v 0.085333 c 0,8.5760007 6.35733,15.3600007 14.976,15.3600007 z"
           inkscape:connector-curvature="0" /><path
           id="path1534"
           style="font-style:normal;font-variant:normal;font-weight:normal;font-stretch:normal;font-size:42.66666794px;font-family:Gotham;-inkscape-font-specification:Gotham;letter-spacing:24px;word-spacing:0px"
           d="m 759.55734,23.970574 h 3.28533 V -0.5200933 L 782.128,23.970574 h 2.688 V -5.8960935 h -3.28533 V 18.039907 l -18.816,-23.9360005 h -3.15733 z"
           inkscape:connector-curvature="0" /></g></g></g></svg>